<?xml version="1.0" standalone="no"?>
<!DOCTYPE svg PUBLIC "-//W3C//DTD SVG 20010904//EN"
 "http://www.w3.org/TR/2001/REC-SVG-20010904/DTD/svg10.dtd">
<svg version="1.0" xmlns="http://www.w3.org/2000/svg"
 width="1024.000000pt" height="1024.000000pt" viewBox="0 0 1024.000000 1024.000000"
 preserveAspectRatio="xMidYMid meet">
<metadata>
Created by potrace 1.14, written by Peter Selinger 2001-2017
</metadata>
<g transform="translate(0.000000,1024.000000) scale(0.100000,-0.100000)"
fill="#000000" stroke="none">
<path d="M2140 9495 c-349 -52 -605 -175 -877 -423 -269 -244 -437 -544 -506
-901 l-22 -116 0 -2940 0 -2940 27 -126 c68 -314 197 -561 409 -783 241 -253
494 -405 799 -480 177 -45 217 -46 1237 -46 613 0 973 -4 973 -10 0 -5 -25
-109 -55 -231 -30 -122 -55 -239 -55 -261 0 -84 54 -164 137 -203 110 -52 247
-30 325 52 15 16 93 168 172 338 l145 310 1628 6 c1108 4 1644 9 1678 16 362
79 594 200 853 447 270 258 424 556 484 936 19 125 19 5844 0 5970 -58 370
-207 658 -483 931 -211 208 -453 348 -719 416 -218 55 -57 53 -3180 52 -2271
-1 -2903 -4 -2970 -14z m3833 -30 c80 -50 126 -138 114 -217 -2 -18 -228 -637
-502 -1376 -273 -739 -495 -1346 -492 -1348 3 -3 515 122 1139 277 764 190
1151 282 1188 282 104 1 211 -70 241 -161 28 -86 89 50 -1408 -3157 l-1410
-3020 -326 -3 -325 -2 23 92 c81 318 995 4081 993 4083 -2 2 -534 -129 -1182
-291 -1049 -262 -1184 -294 -1230 -288 -129 17 -226 111 -226 219 0 25 123
549 281 1198 154 633 366 1503 470 1932 105 429 237 974 295 1210 57 237 110
443 116 459 19 48 69 97 123 123 l50 23 1010 -2 1010 -3 48 -30z"/>
</g>
</svg>
